<svg viewBox="0 0 14 15" fill="none" xmlns="http://www.w3.org/2000/svg">
<path d="M12.5358 6.44413L11.9525 6.1233L6.70247 3.20663H6.6383C6.60254 3.19151 6.56543 3.17979 6.52747 3.17163H6.41664H6.31164C6.27178 3.1798 6.23274 3.19151 6.19497 3.20663H6.1308L0.880803 6.1233C0.791029 6.17418 0.716358 6.24795 0.664406 6.33711C0.612455 6.42627 0.585083 6.52761 0.585083 6.6308C0.585083 6.73399 0.612455 6.83533 0.664406 6.92448C0.716358 7.01364 0.791029 7.08742 0.880803 7.1383L2.3333 7.9433V10.7083C2.3333 11.1724 2.51768 11.6175 2.84587 11.9457C3.17405 12.2739 3.61917 12.4583 4.0833 12.4583H8.74997C9.2141 12.4583 9.65922 12.2739 9.98741 11.9457C10.3156 11.6175 10.5 11.1724 10.5 10.7083V7.9433L11.6666 7.28996V8.9583C11.6666 9.11301 11.7281 9.26138 11.8375 9.37078C11.9469 9.48017 12.0953 9.54163 12.25 9.54163C12.4047 9.54163 12.5531 9.48017 12.6624 9.37078C12.7718 9.26138 12.8333 9.11301 12.8333 8.9583V6.95163C12.8331 6.84827 12.8055 6.74681 12.7532 6.65763C12.7009 6.56846 12.6259 6.49478 12.5358 6.44413ZM9.3333 10.7083C9.3333 10.863 9.27184 11.0114 9.16245 11.1208C9.05305 11.2302 8.90468 11.2916 8.74997 11.2916H4.0833C3.92859 11.2916 3.78022 11.2302 3.67082 11.1208C3.56143 11.0114 3.49997 10.863 3.49997 10.7083V8.5908L6.1308 10.0491L6.2183 10.0841H6.2708C6.31922 10.0902 6.36822 10.0902 6.41664 10.0841C6.46506 10.0902 6.51405 10.0902 6.56247 10.0841H6.61497C6.64594 10.0776 6.67554 10.0658 6.70247 10.0491L9.3333 8.5908V10.7083ZM6.41664 8.87663L2.3683 6.62496L6.41664 4.3733L10.465 6.62496L6.41664 8.87663Z" fill="currentColor"/>
</svg>
